# xmcd CD database file
#
# Track frame offsets:
#	150
#	11130
#	23928
#	35933
#	52935
#	72415
#	89103
#	104318
#	118985
#	132758
#
# Disc length: 1949 seconds
#
# Revision: 0
# Processed by: cddbd v1.5.2PL0 Copyright (c) Steve Scherf et al.
# Submitted via: CDex 1.70beta2
#
DISCID=92079b0a
DTITLE=Wes Montgomery - Down Here On The Ground
DYEAR=1900
DGENRE=Jazz
TTITLE0=Wind Song
TTITLE1=Georgia On My Mind
TTITLE2=The Other Man's Grass Is Always Greener
TTITLE3=Down Here On The Ground
TTITLE4=Up And At It
TTITLE5=Goin On To Detroit
TTITLE6=I Say A Little Prayer
TTITLE7=When I Look In Your Eyes
TTITLE8=Know It All (Quem Diz Que Sabe)
TTITLE9=The Fox
EXTD=
EXTT0=
EXTT1=
EXTT2=
EXTT3=
EXTT4=
EXTT5=
EXTT6=
EXTT7=
EXTT8=
EXTT9=
PLAYORDER=
